<?xml version="1.0" encoding="UTF-8" standalone="no"?>
<!-- Created with Inkscape (http://www.inkscape.org/) -->

<svg
   xmlns:dc="http://purl.org/dc/elements/1.1/"
   xmlns:cc="http://creativecommons.org/ns#"
   xmlns:rdf="http://www.w3.org/1999/02/22-rdf-syntax-ns#"
   xmlns:svg="http://www.w3.org/2000/svg"
   xmlns="http://www.w3.org/2000/svg"
   xmlns:xlink="http://www.w3.org/1999/xlink"
   version="1.1"
   width="45.09448"
   height="55.3622"
   id="svg2">
  <defs
     id="defs4">
    <linearGradient
       id="linearGradient3009">
      <stop
         id="stop3011"
         style="stop-color:#000000;stop-opacity:1"
         offset="0" />
      <stop
         id="stop3013"
         style="stop-color:#000000;stop-opacity:0"
         offset="1" />
    </linearGradient>
    <linearGradient
       x1="0.32421875"
       y1="0.32897949"
       x2="1.0195312"
       y2="0.31726074"
       id="linearGradient3015"
       xlink:href="#linearGradient3009"
       gradientUnits="userSpaceOnUse" />
  </defs>
  <metadata
     id="metadata7">
    <rdf:RDF>
      <cc:Work
         rdf:about="">
        <dc:format>image/svg+xml</dc:format>
        <dc:type
           rdf:resource="http://purl.org/dc/dcmitype/StillImage" />
        <dc:title></dc:title>
      </cc:Work>
    </rdf:RDF>
  </metadata>
  <g
     transform="matrix(4.0745923,0,0,4.0745923,-1.2598121,-0.87984803)"
     id="layer1">
    <path
       d="m 0.4017857,0.33092818 a 0.078125,0.078125 0 1 1 -4.97e-6,-8.8121e-4"
       transform="matrix(27.99725,0,0,27.99725,-6.4645751,-2.2287963)"
       id="path2987"
       style="fill:#000000" />
    <path
       d="m 0.62890625,0.32897949 a 0.15234375,0.07617187 0 1 1 -9.69e-6,-8.5918e-4"
       transform="matrix(27.99725,0,0,27.99725,-6.4645751,-2.2287963)"
       id="path2991"
       style="fill:url(#linearGradient3015)" />
    <path
       d="M 3.8765242,5.4464003 C 6.1108083,1.5765066 8.936757,0.38616738 8.936757,0.38616738 10.547812,6.3987061 3.8765242,5.4464003 3.8765242,5.4464003 z"
       id="path3805"
       style="fill:#000000;fill-opacity:0.11857707;stroke:#000600;stroke-width:0.2;stroke-linecap:butt;stroke-linejoin:round;stroke-miterlimit:4;stroke-opacity:0.11857707;stroke-dasharray:none" />
    <path
       d="M 3.7178758,8.3797236 C 5.9521608,12.249617 8.778109,13.439957 8.778109,13.439957 10.389164,7.4274176 3.7178758,8.3797236 3.7178758,8.3797236 z"
       id="path3805-1"
       style="fill:#000000;fill-opacity:0.11857707;stroke:#000600;stroke-width:0.2;stroke-linecap:butt;stroke-linejoin:round;stroke-miterlimit:4;stroke-opacity:0.11857707;stroke-dasharray:none" />
  </g>
</svg>
